<svg width="140" height="76" viewBox="0 0 140 76" fill="none" xmlns="http://www.w3.org/2000/svg">
<rect y="56" width="140" height="20" fill="black"/>
<path d="M5.196 70V61.03H10.968V61.823H6.067V65.268H10.578V66.048H6.067V70H5.196ZM12.5593 70V61.03H16.7713C18.0626 61.03 18.7083 61.6757 18.7083 62.967V64.384C18.7083 65.5193 18.2056 66.1477 17.2003 66.269L18.9683 69.779L18.8513 70H18.1363L16.2643 66.308H13.4303V70H12.5593ZM13.4303 65.528H16.8233C17.4993 65.528 17.8373 65.1857 17.8373 64.501V62.837C17.8373 62.161 17.4993 61.823 16.8233 61.823H13.4303V65.528ZM20.7193 68.063V62.967C20.7193 61.6757 21.365 61.03 22.6563 61.03H25.7113C27.0027 61.03 27.6483 61.6757 27.6483 62.967V68.063C27.6483 69.3543 27.0027 70 25.7113 70H22.6563C21.365 70 20.7193 69.3543 20.7193 68.063ZM21.5903 68.193C21.5903 68.869 21.9327 69.207 22.6173 69.207H25.7633C26.4393 69.207 26.7773 68.869 26.7773 68.193V62.837C26.7773 62.161 26.4393 61.823 25.7633 61.823H22.6173C21.9327 61.823 21.5903 62.161 21.5903 62.837V68.193ZM29.9265 70V61.03H30.9015L35.9585 68.713V61.03H36.8165V70H35.8545L30.7975 62.317V70H29.9265ZM38.3354 61.823V61.03H45.3294V61.823H42.2614V70H41.4034V61.823H38.3354ZM46.8366 70V61.03H52.6086V61.823H47.7076V64.878H52.2186V65.658H47.7076V69.207H52.6086V70H46.8366ZM54.4538 70V61.03H55.4288L60.4858 68.713V61.03H61.3438V70H60.3818L55.3248 62.317V70H54.4538ZM63.7468 70V61.03H67.2958C69.3758 61.03 70.4158 62.0743 70.4158 64.163V66.867C70.4158 68.9557 69.3758 70 67.2958 70H63.7468ZM64.6178 69.207H67.3478C68.8124 69.207 69.5448 68.4747 69.5448 67.01V64.02C69.5448 62.5553 68.8124 61.823 67.3478 61.823H64.6178V69.207ZM75.6804 70V61.03H81.4524V61.823H76.5514V64.878H81.0624V65.658H76.5514V69.207H81.4524V70H75.6804ZM83.2976 70V61.03H84.2726L89.3296 68.713V61.03H90.1876V70H89.2256L84.1686 62.317V70H83.2976ZM92.4605 68.063V62.967C92.4605 61.6757 93.1062 61.03 94.3975 61.03H98.3755L98.8695 61.42V61.823H94.3585C93.6739 61.823 93.3315 62.161 93.3315 62.837V68.193C93.3315 68.869 93.6739 69.207 94.3585 69.207H98.2585V65.658H95.9185V64.878H99.1295V70H94.3975C93.1062 70 92.4605 69.3543 92.4605 68.063ZM101.274 70V61.03H102.145V70H101.274ZM104.55 70V61.03H105.525L110.582 68.713V61.03H111.44V70H110.478L105.421 62.317V70H104.55ZM113.842 70V61.03H119.614V61.823H114.713V64.878H119.224V65.658H114.713V69.207H119.614V70H113.842ZM121.46 70V61.03H127.232V61.823H122.331V64.878H126.842V65.658H122.331V69.207H127.232V70H121.46ZM129.077 70V61.03H133.289C134.58 61.03 135.226 61.6757 135.226 62.967V64.384C135.226 65.5193 134.723 66.1477 133.718 66.269L135.486 69.779L135.369 70H134.654L132.782 66.308H129.948V70H129.077ZM129.948 65.528H133.341C134.017 65.528 134.355 65.1857 134.355 64.501V62.837C134.355 62.161 134.017 61.823 133.341 61.823H129.948V65.528Z" fill="white"/>
<path d="M32.9125 54V42.4125H39.055C41.185 42.4125 42.25 43.485 42.25 45.63V54H41.2375V45.405C41.2375 44.01 40.54 43.3125 39.145 43.3125H33.925V54H32.9125ZM48.5962 54C46.4362 54 45.3562 52.905 45.3562 50.715C45.3562 48.525 46.4362 47.43 48.5962 47.43H53.3212V45.405C53.3212 44.01 52.6237 43.3125 51.2287 43.3125H46.3912V42.885L47.0212 42.4125H51.1387C53.2687 42.4125 54.3337 43.485 54.3337 45.63V54H48.5962ZM46.3687 51.0075C46.3687 52.4025 47.0662 53.1 48.4612 53.1H53.3212V48.33H48.4612C47.0662 48.33 46.3687 49.0275 46.3687 50.4225V51.0075ZM56.6312 42.6375L56.7662 42.4125H57.6437L61.4687 53.1H62.0537L65.8787 42.4125H66.7562L66.8912 42.6375L62.7512 54H60.7937L56.6312 42.6375ZM71.6675 54C69.5075 54 68.4275 52.905 68.4275 50.715C68.4275 48.525 69.5075 47.43 71.6675 47.43H76.3925V45.405C76.3925 44.01 75.695 43.3125 74.3 43.3125H69.4625V42.885L70.0925 42.4125H74.21C76.34 42.4125 77.405 43.485 77.405 45.63V54H71.6675ZM69.44 51.0075C69.44 52.4025 70.1375 53.1 71.5325 53.1H76.3925V48.33H71.5325C70.1375 48.33 69.44 49.0275 69.44 50.4225V51.0075ZM81.0525 54V43.65C81.5625 42.825 82.485 42.4125 83.82 42.4125H85.9575L86.5875 42.885V43.3125H83.7075C82.9575 43.3125 82.41 43.515 82.065 43.92V54H81.0525ZM88.9846 54V43.65C89.4946 42.825 90.4171 42.4125 91.7521 42.4125H93.8896L94.5196 42.885V43.3125H91.6396C90.8896 43.3125 90.3421 43.515 89.9971 43.92V54H88.9846ZM96.8267 50.7825V45.63C96.8267 43.485 97.8992 42.4125 100.044 42.4125H103.194C105.324 42.4125 106.389 43.485 106.389 45.63V50.7825C106.389 52.9275 105.324 54 103.194 54H100.044C97.8992 54 96.8267 52.9275 96.8267 50.7825ZM97.8392 51.0075C97.8392 52.4025 98.5367 53.1 99.9317 53.1H103.284C104.679 53.1 105.377 52.4025 105.377 51.0075V45.405C105.377 44.01 104.679 43.3125 103.284 43.3125H99.9317C98.5367 43.3125 97.8392 44.01 97.8392 45.405V51.0075Z" fill="black" fill-opacity="0.5"/>
<path d="M38.825 41V9.95H44.315V41H38.825ZM51.9646 41V9.95H57.4546V36.005H71.4947V41H51.9646ZM75.9482 33.665V17.285C75.9482 12.395 78.3932 9.95 83.2832 9.95H93.5882C98.4782 9.95 100.923 12.395 100.923 17.285V33.665C100.923 38.555 98.4782 41 93.5882 41H83.2832C78.3932 41 75.9482 38.555 75.9482 33.665ZM81.4382 34.07C81.4382 35.36 82.0982 36.005 83.4182 36.005H93.4532C94.7732 36.005 95.4332 35.36 95.4332 34.07V16.88C95.4332 15.59 94.7732 14.945 93.4532 14.945H83.4182C82.0982 14.945 81.4382 15.59 81.4382 16.88V34.07Z" fill="black"/>
</svg>
